<svg width="20" height="21" viewBox="0.197265625 0.4979248046875 19.60546875 20.004150390625" fill="none" xmlns="http://www.w3.org/2000/svg">
<path d="M10.2012 4.05798C11.6512 4.03359 13.0524 4.58172 14.1009 5.58352L17.0268 2.65762C15.1803 0.923415 12.7343 -0.0287583 10.2012 0.000662015C6.34421 -0.000817165 2.8164 2.174 1.08503 5.62062L4.49318 8.26366C5.29684 5.78256 7.59343 4.09043 10.2012 4.05798Z" fill="white"/>
<path d="M1.08503 5.62062C-0.361698 8.50348 -0.361667 11.9003 1.08506 14.7832L4.49316 12.1401C4.06663 10.8832 4.06665 9.52062 4.49318 8.26366L1.08503 5.62062Z" fill="white"/>
<path d="M13.6558 15.3721C10.7954 17.2081 6.98812 16.3777 5.15209 13.5172C4.87615 13.0873 4.6548 12.6247 4.49316 12.1401L1.08506 14.7832C2.8164 18.2298 6.34423 20.4046 10.2013 20.4031C12.6846 20.4705 15.0997 19.5864 16.9526 17.9317L13.6558 15.3721Z" fill="white"/>
<path d="M19.809 8.34713H10.2013V12.2931H15.6914C15.4618 13.5544 14.7264 14.6669 13.6558 15.3721L16.9526 17.9317C18.983 15.9762 20.0885 13.2511 19.9944 10.4338C19.995 9.73405 19.9329 9.03576 19.809 8.34713Z" fill="white"/>
</svg>
